<svg width="220" height="50" viewBox="0 0 220 50" fill="none" xmlns="http://www.w3.org/2000/svg">
<rect width="220" height="50" fill="black"/>
<path d="M171.111 23.744L170.361 23.744L170.361 25.244L171.111 25.244L171.111 23.744ZM197.149 25.0244C197.442 24.7315 197.442 24.2566 197.149 23.9637L192.376 19.1907C192.083 18.8978 191.608 18.8978 191.315 19.1907C191.022 19.4836 191.022 19.9585 191.315 20.2514L195.558 24.494L191.315 28.7367C191.022 29.0296 191.022 29.5044 191.315 29.7973C191.608 30.0902 192.083 30.0902 192.376 29.7973L197.149 25.0244ZM171.111 25.244L196.618 25.244L196.618 23.744L171.111 23.744L171.111 25.244Z" fill="white"/>
<path d="M56.8622 26.8648C57.1182 27.3128 57.3849 27.7075 57.6622 28.0488C57.9502 28.3902 58.2702 28.6568 58.6222 28.8488C58.9742 29.0408 59.3742 29.1368 59.8222 29.1368C60.4195 29.1368 60.8995 28.9715 61.2622 28.6408C61.6249 28.3102 61.8062 27.8888 61.8062 27.3768C61.8062 26.8755 61.6889 26.4755 61.4542 26.1768C61.2195 25.8782 60.9102 25.6382 60.5262 25.4568C60.1529 25.2648 59.7529 25.0942 59.3262 24.9448C59.0489 24.8488 58.7395 24.7262 58.3982 24.5768C58.0569 24.4168 57.7315 24.2195 57.4222 23.9848C57.1129 23.7395 56.8569 23.4408 56.6542 23.0888C56.4622 22.7368 56.3662 22.3048 56.3662 21.7928C56.3662 21.2382 56.5049 20.7422 56.7822 20.3048C57.0595 19.8675 57.4435 19.5262 57.9342 19.2808C58.4249 19.0248 58.9849 18.8968 59.6142 18.8968C60.2222 18.8968 60.7502 19.0142 61.1982 19.2488C61.6569 19.4728 62.0462 19.7662 62.3662 20.1288C62.6862 20.4808 62.9369 20.8542 63.1182 21.2488L61.9502 21.9208C61.8115 21.6435 61.6355 21.3715 61.4222 21.1048C61.2089 20.8382 60.9475 20.6195 60.6382 20.4488C60.3395 20.2782 59.9715 20.1928 59.5342 20.1928C58.9262 20.1928 58.4835 20.3422 58.2062 20.6408C57.9289 20.9288 57.7902 21.2542 57.7902 21.6168C57.7902 21.9262 57.8702 22.2142 58.0302 22.4808C58.1902 22.7368 58.4569 22.9822 58.8302 23.2168C59.2142 23.4408 59.7315 23.6648 60.3822 23.8888C60.6809 23.9955 60.9955 24.1342 61.3262 24.3048C61.6569 24.4755 61.9609 24.6942 62.2382 24.9608C62.5262 25.2168 62.7609 25.5315 62.9422 25.9048C63.1235 26.2675 63.2142 26.7048 63.2142 27.2168C63.2142 27.7075 63.1182 28.1502 62.9262 28.5448C62.7449 28.9395 62.4889 29.2755 62.1582 29.5528C61.8382 29.8302 61.4702 30.0435 61.0542 30.1928C60.6489 30.3422 60.2222 30.4168 59.7742 30.4168C59.1662 30.4168 58.6009 30.2888 58.0782 30.0328C57.5662 29.7662 57.1129 29.4195 56.7182 28.9928C56.3342 28.5555 56.0195 28.0915 55.7742 27.6008L56.8622 26.8648ZM65.9638 24.8168V23.5368H73.6438V24.8168H65.9638ZM72.7318 19.0568H74.0918V30.2568H72.7318V19.0568ZM65.2118 19.0568H66.5718V30.2568H65.2118V19.0568ZM77.4493 24.6568C77.4493 25.4995 77.6307 26.2515 77.9933 26.9128C78.3667 27.5742 78.8733 28.0968 79.5133 28.4808C80.1533 28.8648 80.8787 29.0568 81.6893 29.0568C82.5107 29.0568 83.236 28.8648 83.8653 28.4808C84.5053 28.0968 85.0067 27.5742 85.3693 26.9128C85.7427 26.2515 85.9293 25.4995 85.9293 24.6568C85.9293 23.8142 85.7427 23.0622 85.3693 22.4008C85.0067 21.7395 84.5053 21.2168 83.8653 20.8328C83.236 20.4488 82.5107 20.2568 81.6893 20.2568C80.8787 20.2568 80.1533 20.4488 79.5133 20.8328C78.8733 21.2168 78.3667 21.7395 77.9933 22.4008C77.6307 23.0622 77.4493 23.8142 77.4493 24.6568ZM76.0093 24.6568C76.0093 23.8355 76.148 23.0782 76.4253 22.3848C76.7133 21.6808 77.1133 21.0728 77.6253 20.5608C78.1373 20.0382 78.74 19.6328 79.4333 19.3448C80.1267 19.0462 80.8787 18.8968 81.6893 18.8968C82.5107 18.8968 83.2627 19.0462 83.9453 19.3448C84.6387 19.6328 85.2413 20.0382 85.7533 20.5608C86.2653 21.0728 86.66 21.6808 86.9373 22.3848C87.2253 23.0782 87.3693 23.8355 87.3693 24.6568C87.3693 25.4675 87.2253 26.2248 86.9373 26.9288C86.66 27.6328 86.2653 28.2462 85.7533 28.7688C85.2413 29.2808 84.6387 29.6862 83.9453 29.9848C83.2627 30.2728 82.5107 30.4168 81.6893 30.4168C80.8787 30.4168 80.1267 30.2728 79.4333 29.9848C78.74 29.6862 78.1373 29.2808 77.6253 28.7688C77.1133 28.2462 76.7133 27.6328 76.4253 26.9288C76.148 26.2248 76.0093 25.4675 76.0093 24.6568ZM89.2899 19.0568H90.6499V30.2568H89.2899V19.0568ZM90.0419 20.3368V19.0568H92.3299C93.0553 19.0568 93.7006 19.1955 94.2659 19.4728C94.8419 19.7395 95.2953 20.1235 95.6259 20.6248C95.9673 21.1262 96.1379 21.7235 96.1379 22.4168C96.1379 23.0995 95.9673 23.6968 95.6259 24.2088C95.2953 24.7102 94.8419 25.0995 94.2659 25.3768C93.7006 25.6435 93.0553 25.7768 92.3299 25.7768H90.0419V24.4968H92.3299C93.0553 24.4968 93.6419 24.3208 94.0899 23.9688C94.5486 23.6168 94.7779 23.0995 94.7779 22.4168C94.7779 21.7235 94.5486 21.2062 94.0899 20.8648C93.6419 20.5128 93.0553 20.3368 92.3299 20.3368H90.0419ZM111.332 19.0568H112.692V30.8168L104.212 21.9208V30.2568H102.852V18.4968L111.332 27.3928V19.0568ZM116.059 24.6568C116.059 25.4995 116.24 26.2515 116.603 26.9128C116.976 27.5742 117.483 28.0968 118.123 28.4808C118.763 28.8648 119.488 29.0568 120.299 29.0568C121.12 29.0568 121.845 28.8648 122.475 28.4808C123.115 28.0968 123.616 27.5742 123.979 26.9128C124.352 26.2515 124.539 25.4995 124.539 24.6568C124.539 23.8142 124.352 23.0622 123.979 22.4008C123.616 21.7395 123.115 21.2168 122.475 20.8328C121.845 20.4488 121.12 20.2568 120.299 20.2568C119.488 20.2568 118.763 20.4488 118.123 20.8328C117.483 21.2168 116.976 21.7395 116.603 22.4008C116.24 23.0622 116.059 23.8142 116.059 24.6568ZM114.619 24.6568C114.619 23.8355 114.757 23.0782 115.035 22.3848C115.323 21.6808 115.723 21.0728 116.235 20.5608C116.747 20.0382 117.349 19.6328 118.043 19.3448C118.736 19.0462 119.488 18.8968 120.299 18.8968C121.12 18.8968 121.872 19.0462 122.555 19.3448C123.248 19.6328 123.851 20.0382 124.363 20.5608C124.875 21.0728 125.269 21.6808 125.547 22.3848C125.835 23.0782 125.979 23.8355 125.979 24.6568C125.979 25.4675 125.835 26.2248 125.547 26.9288C125.269 27.6328 124.875 28.2462 124.363 28.7688C123.851 29.2808 123.248 29.6862 122.555 29.9848C121.872 30.2728 121.12 30.4168 120.299 30.4168C119.488 30.4168 118.736 30.2728 118.043 29.9848C117.349 29.6862 116.747 29.2808 116.235 28.7688C115.723 28.2462 115.323 27.6328 115.035 26.9288C114.757 26.2248 114.619 25.4675 114.619 24.6568ZM137.383 27.2968L140.295 19.0568H141.815L137.415 30.8168L134.055 22.1128L130.695 30.8168L126.295 19.0568H127.815L130.791 27.2968L134.055 18.4968L137.383 27.2968Z" fill="white"/>
</svg>
